<svg width="100" height="41" viewBox="0 0 100 41" fill="none" xmlns="http://www.w3.org/2000/svg">
<g clip-path="url(#clip0_706_7665)">
<path d="M16.2514 26.8888H4.50473V19.1317H0V40.4186H4.50473V30.8719H16.2514V40.4186H20.7948V19.1317H16.2514V26.8888Z" fill="#1F2D81"/>
<path d="M74.1658 19.1317H67.9639L59.9911 26.7844V19.1317H55.4863V40.4186H59.9911V28.1945L71.2529 40.4186H76.9734L64.7734 27.5086L74.1658 19.1317Z" fill="#1F2D81"/>
<path d="M95.4603 19.1317V29.984C95.4603 34.068 93.2747 36.5052 89.3919 36.5052C85.4775 36.5052 83.3622 34.068 83.3622 29.9457V19.1317H78.8574V29.9457C78.8574 36.4843 82.6699 40.5822 89.16 40.6901C95.1405 40.7911 99.9966 35.9063 99.9966 29.9806V19.1317H95.4603Z" fill="#1F2D81"/>
<path d="M47.3634 16.1793C52.0403 16.1793 55.8106 12.2659 55.5119 7.56912C55.2554 3.54432 51.9489 0.268083 47.8869 0.0174041C43.1468 -0.278537 39.1972 3.45728 39.1972 8.09137C39.1972 10.2987 40.1108 12.2833 41.5691 13.7386C42.0259 14.1947 42.1734 14.8667 41.924 15.4586L41.5128 16.4265C40.9541 17.7425 39.6435 18.5572 38.2028 18.5538C38.1958 18.5538 38.1853 18.5538 38.1782 18.5538C31.6636 18.5538 26.4174 24.0304 26.8778 30.5794C27.2678 36.1083 31.7901 40.5857 37.37 40.9721C43.9796 41.4282 49.5033 36.2301 49.5033 29.7751C49.5033 26.6973 48.2418 23.9051 46.2073 21.8753C45.2129 20.883 44.8826 19.4137 45.4308 18.1255L45.8524 17.1332C46.1054 16.5379 46.6993 16.1758 47.3528 16.1793C47.3563 16.1793 47.3598 16.1793 47.3634 16.1793ZM38.1782 36.7593C34.1408 36.7593 30.887 33.3821 31.1435 29.326C31.3544 25.9836 34.0038 23.2157 37.3595 22.8397C41.6077 22.3627 45.2199 25.6598 45.2199 29.7751C45.2234 33.6293 42.0645 36.7593 38.1782 36.7593ZM46.8574 4.27199C49.3944 3.95168 51.5378 6.07549 51.2145 8.58925C50.9967 10.3022 49.5982 11.6879 47.8694 11.9038C45.3289 12.2241 43.1889 10.1003 43.5122 7.58305C43.7301 5.87355 45.1286 4.49133 46.8574 4.27199Z" fill="#1F2D81"/>
</g>
<defs>
<clipPath id="clip0_706_7665">
<rect width="100" height="41" fill="white"/>
</clipPath>
</defs>
</svg>
