<svg width="289" height="118" viewBox="0 0 289 118" fill="none" xmlns="http://www.w3.org/2000/svg">
<g clip-path="url(#clip0_448_2732)">
<path d="M46.9667 77.3874H13.0187V55.062H0V116.327H13.0187V88.8507H46.9667V116.327H60.0971V55.062H46.9667V77.3874Z" fill="white"/>
<path d="M214.341 55.062H196.417L173.376 77.0868V55.062H160.357V116.327H173.376V81.1451L205.922 116.327H222.455L187.196 79.171L214.341 55.062Z" fill="white"/>
<path d="M275.88 55.062V86.2955C275.88 98.0494 269.563 105.064 258.342 105.064C247.03 105.064 240.916 98.0494 240.916 86.1853V55.062H227.898V86.1853C227.898 105.004 238.916 116.798 257.672 117.108C274.956 117.399 288.99 103.34 288.99 86.2855V55.062H275.88Z" fill="white"/>
<path d="M136.879 46.5649C150.395 46.5649 161.291 35.302 160.428 21.7845C159.687 10.2009 150.131 0.771742 138.392 0.0502748C124.693 -0.801458 113.279 9.95041 113.279 23.2875C113.279 29.6405 115.919 35.3521 120.133 39.5406C121.453 40.8533 121.88 42.7872 121.159 44.4907L119.971 47.2763C118.356 51.064 114.568 53.4088 110.405 53.3988C110.384 53.3988 110.354 53.3988 110.334 53.3988C91.5064 53.3988 76.345 69.1608 77.6753 88.0092C78.8025 103.922 91.872 116.808 107.998 117.92C127.1 119.233 143.063 104.272 143.063 85.6945C143.063 76.8364 139.417 68.8001 133.538 62.9582C130.664 60.1024 129.709 55.8738 131.294 52.1663L132.512 49.3105C133.243 47.597 134.959 46.5549 136.848 46.5649C136.858 46.5649 136.869 46.5649 136.879 46.5649ZM110.334 105.795C98.6656 105.795 89.2621 96.0756 90.0035 84.4018C90.6128 74.7823 98.2696 66.8161 107.968 65.7339C120.245 64.3611 130.684 73.8504 130.684 85.6945C130.694 96.787 121.565 105.795 110.334 105.795ZM135.416 12.2952C142.748 11.3733 148.943 17.4857 148.009 24.7205C147.379 29.6505 143.337 33.6386 138.341 34.2599C130.999 35.1817 124.815 29.0693 125.749 21.8246C126.379 16.9046 130.42 12.9265 135.416 12.2952Z" fill="white"/>
</g>
<defs>
<clipPath id="clip0_448_2732">
<rect width="289" height="118" fill="white"/>
</clipPath>
</defs>
</svg>
