<svg width="100" height="41" viewBox="0 0 100 41" fill="none" xmlns="http://www.w3.org/2000/svg">
<g clip-path="url(#clip0_448_2739)">
<path d="M16.2514 26.8888H4.50473V19.1317H0V40.4186H4.50473V30.8719H16.2514V40.4186H20.7948V19.1317H16.2514V26.8888Z" fill="white"/>
<path d="M74.1663 19.1317H67.9644L59.9915 26.7844V19.1317H55.4868V40.4186H59.9915V28.1945L71.2534 40.4186H76.9739L64.7739 27.5086L74.1663 19.1317Z" fill="white"/>
<path d="M95.4601 19.1317V29.984C95.4601 34.068 93.2745 36.5052 89.3918 36.5052C85.4773 36.5052 83.362 34.068 83.362 29.9457V19.1317H78.8573V29.9457C78.8573 36.4843 82.6698 40.5822 89.1598 40.6901C95.1404 40.7911 99.9965 35.9063 99.9965 29.9806V19.1317H95.4601Z" fill="white"/>
<path d="M47.3629 16.1793C52.0398 16.1793 55.8101 12.2659 55.5114 7.56912C55.2549 3.54432 51.9484 0.268083 47.8864 0.0174041C43.1463 -0.278537 39.1967 3.45728 39.1967 8.09137C39.1967 10.2987 40.1103 12.2833 41.5686 13.7386C42.0254 14.1947 42.173 14.8667 41.9235 15.4586L41.5124 16.4265C40.9537 17.7425 39.643 18.5572 38.2023 18.5538C38.1953 18.5538 38.1848 18.5538 38.1777 18.5538C31.6631 18.5538 26.417 24.0304 26.8773 30.5794C27.2673 36.1083 31.7896 40.5857 37.3696 40.9721C43.9791 41.4282 49.5028 36.2301 49.5028 29.7751C49.5028 26.6973 48.2413 23.9051 46.2068 21.8753C45.2124 20.883 44.8821 19.4137 45.4303 18.1255L45.8519 17.1332C46.1049 16.5379 46.6988 16.1758 47.3523 16.1793C47.3558 16.1793 47.3594 16.1793 47.3629 16.1793ZM38.1777 36.7593C34.1403 36.7593 30.8865 33.3821 31.1431 29.326C31.3539 25.9836 34.0033 23.2157 37.359 22.8397C41.6072 22.3627 45.2194 25.6598 45.2194 29.7751C45.223 33.6293 42.064 36.7593 38.1777 36.7593ZM46.8569 4.27199C49.3939 3.95168 51.5373 6.07549 51.214 8.58925C50.9962 10.3022 49.5977 11.6879 47.8689 11.9038C45.3284 12.2241 43.1885 10.1003 43.5117 7.58305C43.7296 5.87355 45.1281 4.49133 46.8569 4.27199Z" fill="white"/>
</g>
<defs>
<clipPath id="clip0_448_2739">
<rect width="100" height="41" fill="white"/>
</clipPath>
</defs>
</svg>
