<svg width="24" height="24" viewBox="0 0 24 24" fill="none" xmlns="http://www.w3.org/2000/svg">
<path fill-rule="evenodd" clip-rule="evenodd" d="M11.25 15C11.25 14.403 11.013 13.8308 10.5908 13.4093C10.1693 12.987 9.597 12.75 9 12.75C7.5105 12.75 5.2395 12.75 3.75 12.75C3.153 12.75 2.58075 12.987 2.15925 13.4093C1.737 13.8308 1.5 14.403 1.5 15V20.25C1.5 20.847 1.737 21.4193 2.15925 21.8408C2.58075 22.263 3.153 22.5 3.75 22.5H9C9.597 22.5 10.1693 22.263 10.5908 21.8408C11.013 21.4193 11.25 20.847 11.25 20.25V15ZM22.5 15C22.5 14.403 22.263 13.8308 21.8408 13.4093C21.4193 12.987 20.847 12.75 20.25 12.75C18.7605 12.75 16.4895 12.75 15 12.75C14.403 12.75 13.8307 12.987 13.4092 13.4093C12.987 13.8308 12.75 14.403 12.75 15V20.25C12.75 20.847 12.987 21.4193 13.4092 21.8408C13.8307 22.263 14.403 22.5 15 22.5H20.25C20.847 22.5 21.4193 22.263 21.8408 21.8408C22.263 21.4193 22.5 20.847 22.5 20.25V15ZM9.75 15V20.25C9.75 20.4488 9.67125 20.64 9.53025 20.7803C9.39 20.9213 9.19875 21 9 21H3.75C3.55125 21 3.36 20.9213 3.21975 20.7803C3.07875 20.64 3 20.4488 3 20.25V15C3 14.8013 3.07875 14.61 3.21975 14.4698C3.36 14.3288 3.55125 14.25 3.75 14.25H9C9.19875 14.25 9.39 14.3288 9.53025 14.4698C9.67125 14.61 9.75 14.8013 9.75 15ZM21 15V20.25C21 20.4488 20.9213 20.64 20.7803 20.7803C20.64 20.9213 20.4487 21 20.25 21H15C14.8013 21 14.61 20.9213 14.4697 20.7803C14.3287 20.64 14.25 20.4488 14.25 20.25V15C14.25 14.8013 14.3287 14.61 14.4697 14.4698C14.61 14.3288 14.8013 14.25 15 14.25H20.25C20.4487 14.25 20.64 14.3288 20.7803 14.4698C20.9213 14.61 21 14.8013 21 15ZM19.2158 11.0948L22.3447 7.96576C23.223 7.08751 23.223 5.66251 22.3447 4.78426L19.2158 1.65526C18.3375 0.777012 16.9125 0.777012 16.0342 1.65526L12.9053 4.78426C12.027 5.66251 12.027 7.08751 12.9053 7.96576L16.0342 11.0948C16.9125 11.973 18.3375 11.973 19.2158 11.0948ZM11.25 3.75001C11.25 3.15301 11.013 2.58076 10.5908 2.15926C10.1693 1.73701 9.597 1.50001 9 1.50001C7.5105 1.50001 5.2395 1.50001 3.75 1.50001C3.153 1.50001 2.58075 1.73701 2.15925 2.15926C1.737 2.58076 1.5 3.15301 1.5 3.75001V9.00001C1.5 9.59701 1.737 10.1693 2.15925 10.5908C2.58075 11.013 3.153 11.25 3.75 11.25H9C9.597 11.25 10.1693 11.013 10.5908 10.5908C11.013 10.1693 11.25 9.59701 11.25 9.00001V3.75001ZM21.2842 6.90526L18.1553 10.0343C17.8628 10.3268 17.3872 10.3268 17.0947 10.0343L13.9658 6.90526C13.6733 6.61276 13.6733 6.13726 13.9658 5.84476L17.0947 2.71576C17.3872 2.42326 17.8628 2.42326 18.1553 2.71576L21.2842 5.84476C21.5767 6.13726 21.5767 6.61276 21.2842 6.90526ZM9.75 3.75001V9.00001C9.75 9.19876 9.67125 9.39001 9.53025 9.53026C9.39 9.67126 9.19875 9.75001 9 9.75001H3.75C3.55125 9.75001 3.36 9.67126 3.21975 9.53026C3.07875 9.39001 3 9.19876 3 9.00001V3.75001C3 3.55126 3.07875 3.36001 3.21975 3.21976C3.36 3.07876 3.55125 3.00001 3.75 3.00001H9C9.19875 3.00001 9.39 3.07876 9.53025 3.21976C9.67125 3.36001 9.75 3.55126 9.75 3.75001Z" fill="white"/>
</svg>
